<svg width="20" height="20" viewBox="0 0 20 20" fill="none" xmlns="http://www.w3.org/2000/svg">
<path d="M10 15C9.89034 15.0006 9.78162 14.9796 9.68009 14.9381C9.57856 14.8967 9.48621 14.8356 9.40835 14.7583L6.07501 11.425C5.93849 11.2656 5.86715 11.0605 5.87526 10.8508C5.88336 10.6411 5.9703 10.4421 6.11871 10.2937C6.26712 10.1453 6.46607 10.0583 6.6758 10.0502C6.88553 10.0421 7.0906 10.1135 7.25001 10.25L10 12.9917L12.7417 10.25C12.9011 10.1135 13.1062 10.0421 13.3159 10.0502C13.5256 10.0583 13.7246 10.1453 13.873 10.2937C14.0214 10.4421 14.1083 10.6411 14.1164 10.8508C14.1245 11.0605 14.0532 11.2656 13.9167 11.425L10.5833 14.7583C10.4281 14.9123 10.2186 14.9991 10 15Z" fill="#777777"/>
<path d="M10 15C9.77901 15 9.56705 14.9122 9.41076 14.7559C9.25448 14.5996 9.16669 14.3877 9.16669 14.1667V5.83333C9.16669 5.61232 9.25448 5.40036 9.41076 5.24408C9.56705 5.0878 9.77901 5 10 5C10.221 5 10.433 5.0878 10.5893 5.24408C10.7456 5.40036 10.8334 5.61232 10.8334 5.83333V14.1667C10.8334 14.3877 10.7456 14.5996 10.5893 14.7559C10.433 14.9122 10.221 15 10 15Z" fill="#777777"/>
</svg>
