<svg width="369" height="350" viewBox="0 0 369 350" fill="none" xmlns="http://www.w3.org/2000/svg">
<path d="M141.5 -2.38419e-05C181.5 -2.38419e-05 209.5 28.5 200.5 73.5L187.5 140C185 152 179 168 170.5 178C174.5 188.5 175.5 202.5 173 217L147 350H79.5L106 213.5H94L67.5 350H5.21541e-08L68 -2.38419e-05H141.5ZM107 146.5H119L134.5 67H122.5L107 146.5ZM187.18 206L227.18 -2.38419e-05H300.68C340.68 -2.38419e-05 368.68 28.5 359.68 73.5L347.68 134.5C344.68 150 338.18 163.5 328.68 175C334.18 185.5 335.68 199.5 332.68 215.5L320.68 276.5C311.68 322 272.68 350 232.68 350H159.18L187.18 206ZM239.68 283H251.68L266.68 206H254.68L239.68 283ZM266.68 144.5H278.68L293.68 67H281.68L266.68 144.5Z" fill="#777777"/>
</svg>
